<?xml version="1.0" standalone="no"?>
<!DOCTYPE svg PUBLIC "-//W3C//DTD SVG 20010904//EN"
 "http://www.w3.org/TR/2001/REC-SVG-20010904/DTD/svg10.dtd">
<svg version="1.0" xmlns="http://www.w3.org/2000/svg"
 width="2880.000000pt" height="2880.000000pt" viewBox="0 0 2880.000000 2880.000000"
 preserveAspectRatio="xMidYMid meet">
<metadata>
Created by potrace 1.14, written by Peter Selinger 2001-2017
</metadata>
<g transform="translate(0.000000,2880.000000) scale(0.100000,-0.100000)"
fill="#000000" stroke="none">
<path d="M13033 17205 c0 -8 4 -12 9 -9 5 3 6 10 3 15 -9 13 -12 11 -12 -6z"/>
<path d="M11270 17040 c0 -5 5 -10 11 -10 5 0 7 5 4 10 -3 6 -8 10 -11 10 -2
0 -4 -4 -4 -10z"/>
<path d="M13666 17038 c3 -5 10 -6 15 -3 13 9 11 12 -6 12 -8 0 -12 -4 -9 -9z"/>
<path d="M14946 16878 c3 -5 10 -6 15 -3 13 9 11 12 -6 12 -8 0 -12 -4 -9 -9z"/>
<path d="M9516 16722 c-3 -5 1 -9 9 -9 8 0 12 4 9 9 -3 4 -7 8 -9 8 -2 0 -6
-4 -9 -8z"/>
<path d="M14946 16722 c-3 -5 1 -9 9 -9 8 0 12 4 9 9 -3 4 -7 8 -9 8 -2 0 -6
-4 -9 -8z"/>
<path d="M15426 16718 c3 -5 10 -6 15 -3 13 9 11 12 -6 12 -8 0 -12 -4 -9 -9z"/>
<path d="M16556 16718 c3 -5 10 -6 15 -3 13 9 11 12 -6 12 -8 0 -12 -4 -9 -9z"/>
<path d="M10476 16558 c3 -5 10 -6 15 -3 13 9 11 12 -6 12 -8 0 -12 -4 -9 -9z"/>
<path d="M12790 16561 c0 -6 4 -13 10 -16 6 -3 7 1 4 9 -7 18 -14 21 -14 7z"/>
<path d="M11120 16480 c-9 -6 -10 -10 -3 -10 6 0 15 5 18 10 8 12 4 12 -15 0z"/>
<path d="M11105 16320 c-3 -6 1 -7 9 -4 18 7 21 14 7 14 -6 0 -13 -4 -16 -10z"/>
<path d="M5510 16165 c0 -6 -24 -11 -52 -12 -57 -3 -141 -11 -179 -18 -56 -11
-147 -31 -154 -35 -3 -1 -8 -3 -12 -5 -45 -12 -192 -74 -203 -85 -3 -3 -21
-14 -40 -24 -92 -50 -230 -174 -308 -276 -23 -30 -46 -60 -52 -67 -5 -7 -10
-15 -10 -17 0 -3 -17 -34 -37 -69 -21 -34 -39 -67 -40 -72 -1 -6 -17 -48 -34
-95 -43 -115 -42 -113 -43 -130 -1 -8 -5 -21 -9 -27 -5 -7 -6 -13 -4 -13 3 0
1 -17 -4 -37 -13 -56 -22 -166 -22 -273 0 -115 6 -170 29 -275 9 -44 17 -86
17 -92 0 -7 4 -13 8 -13 7 0 22 -53 19 -66 -1 -4 3 -10 8 -13 5 -3 17 -23 25
-44 25 -59 98 -165 155 -224 12 -13 22 -29 22 -35 0 -6 3 -9 6 -5 3 3 17 -7
31 -24 14 -16 31 -29 39 -29 8 0 14 -4 14 -9 0 -5 23 -24 50 -42 28 -18 50
-36 50 -41 0 -4 3 -7 8 -6 4 2 37 -12 73 -29 79 -39 202 -80 261 -88 24 -3 56
-8 71 -11 16 -3 73 -7 126 -8 54 -2 104 -7 111 -11 8 -5 11 -4 7 2 -4 6 10 10
34 11 22 1 52 4 67 7 15 2 46 7 68 9 23 3 53 10 68 15 14 6 26 8 26 5 0 -2 14
2 30 11 17 9 30 13 30 9 0 -4 7 0 17 7 9 8 18 13 20 11 6 -5 93 37 94 45 0 4
2 17 4 28 4 19 12 87 20 165 2 19 4 35 5 35 1 0 3 20 6 45 2 25 6 61 8 80 2
19 7 71 11 115 6 73 5 78 -9 60 -8 -11 -16 -16 -16 -11 0 4 -8 -1 -17 -12 -10
-12 -45 -35 -78 -52 -33 -18 -66 -37 -72 -42 -7 -6 -13 -8 -13 -4 0 4 -13 0
-30 -9 -16 -9 -30 -13 -30 -11 0 3 -15 -1 -32 -9 -70 -28 -315 -37 -356 -11
-6 4 -12 5 -12 2 0 -10 -107 27 -162 56 -60 32 -145 108 -190 168 -72 99 -109
226 -109 375 0 94 3 124 16 185 3 14 8 40 11 58 3 18 10 35 15 38 5 3 9 14 9
25 0 10 5 19 12 19 6 0 8 3 5 6 -7 7 19 59 41 82 6 7 12 18 12 23 0 10 5 16
94 108 33 33 65 61 73 61 7 0 13 4 13 9 0 12 116 72 124 64 3 -3 6 -1 6 5 0
14 128 44 205 48 33 2 62 4 65 5 3 1 10 0 15 -1 6 -1 30 -3 55 -4 25 -1 51 -6
58 -10 7 -4 12 -2 12 4 0 7 6 8 18 1 9 -5 34 -12 56 -15 21 -4 43 -9 50 -13 6
-4 17 -8 25 -10 8 -1 17 -5 20 -10 3 -4 13 -9 21 -11 24 -5 100 -46 100 -54 0
-5 5 -8 12 -8 6 0 18 -6 27 -14 9 -8 29 -26 45 -41 15 -14 31 -24 34 -20 8 8
13 46 27 196 1 14 4 30 7 35 2 5 3 19 2 32 0 12 1 22 5 22 3 0 7 21 7 48 1 26
5 81 8 122 l7 75 -48 22 c-51 23 -122 52 -126 52 -1 0 -15 5 -32 11 -84 33
-229 59 -345 62 -30 1 -58 7 -62 12 -5 7 -8 7 -8 1z"/>
<path d="M15037 16138 c-9 -5 -33 -9 -142 -24 -5 0 -17 -3 -25 -7 -48 -18
-177 -59 -187 -59 -7 -1 -13 -5 -13 -10 0 -4 -8 -8 -19 -8 -10 0 -24 -7 -31
-15 -7 -8 -16 -15 -21 -15 -11 0 -129 -71 -158 -95 -68 -57 -176 -165 -214
-214 -23 -31 -44 -58 -48 -61 -24 -22 -109 -193 -134 -270 -10 -30 -20 -62
-23 -70 -3 -8 -6 -17 -7 -20 -3 -12 -19 -97 -21 -112 -1 -10 -2 -19 -4 -20 -5
-6 -10 -90 -11 -198 -2 -106 3 -177 17 -240 3 -14 8 -36 11 -50 14 -70 19 -85
64 -190 26 -60 76 -147 96 -168 7 -7 13 -17 13 -20 0 -13 132 -154 172 -184
13 -9 37 -28 53 -41 45 -35 148 -93 189 -107 20 -6 36 -16 36 -21 0 -6 5 -7
10 -4 6 4 17 1 25 -5 8 -7 15 -9 15 -5 0 4 7 2 15 -5 8 -7 15 -10 15 -7 0 3
15 1 33 -4 35 -11 44 -13 102 -24 134 -24 439 -24 535 1 14 3 39 7 55 9 17 1
38 6 47 10 9 3 25 8 35 10 10 2 19 4 21 5 1 2 7 4 12 5 6 1 11 3 13 5 1 1 10
3 19 5 9 2 31 10 49 19 17 9 35 13 40 11 4 -3 10 -1 14 4 3 5 31 22 63 38 31
15 68 38 82 50 14 13 30 23 35 23 6 0 26 16 45 35 19 19 41 35 48 35 6 0 12 4
12 9 0 5 16 26 36 47 20 22 49 56 64 76 15 21 30 35 34 33 3 -3 4 -2 2 1 -3 3
15 37 40 74 24 38 44 73 44 79 0 6 5 11 10 11 6 0 9 3 8 8 -1 4 6 25 16 47 19
44 47 121 51 145 2 8 4 15 5 15 1 0 3 11 6 25 2 14 7 32 10 40 7 15 8 22 18
95 17 119 19 150 18 255 -1 102 -4 142 -17 215 -6 38 -14 70 -24 104 -6 19 -8
38 -5 42 3 5 1 9 -4 9 -8 0 -32 64 -31 84 0 5 -3 12 -8 15 -4 3 -17 24 -28 46
-11 22 -30 54 -42 71 -13 17 -23 33 -23 37 0 7 -33 46 -92 111 -27 28 -48 54
-48 59 0 4 -6 7 -14 7 -8 0 -21 8 -28 18 -7 9 -25 23 -40 31 -16 8 -28 18 -28
23 0 4 -4 8 -9 8 -5 0 -39 18 -76 40 -38 21 -81 42 -97 45 -15 4 -28 11 -28
15 0 5 -7 7 -15 4 -8 -4 -15 -1 -15 7 0 7 -3 10 -6 7 -3 -4 -36 3 -72 13 -58
17 -123 28 -184 32 -10 1 -18 4 -18 7 0 8 -330 6 -343 -2z m236 -464 c55 -3
102 -10 102 -14 0 -1 8 -3 18 -5 10 -2 26 -7 35 -11 9 -4 23 -8 31 -10 21 -4
85 -38 89 -46 2 -5 9 -8 16 -8 19 0 139 -112 156 -146 8 -16 19 -32 23 -35 4
-3 9 -16 10 -27 1 -12 4 -22 8 -22 10 0 30 -61 23 -71 -3 -5 0 -9 7 -9 6 0 9
-8 6 -20 -3 -10 -1 -20 4 -22 23 -8 26 -274 4 -365 -3 -13 -7 -33 -10 -44 -17
-80 -77 -203 -126 -259 -61 -71 -104 -112 -131 -126 -15 -8 -28 -19 -28 -24 0
-6 -6 -10 -13 -10 -7 0 -29 -9 -49 -20 -20 -11 -47 -22 -60 -24 -13 -3 -39
-10 -58 -15 -34 -11 -134 -25 -157 -22 -24 2 -38 2 -58 0 -19 -2 -88 6 -149
17 -46 8 -134 41 -180 68 -45 26 -151 126 -176 165 -8 13 -19 29 -25 35 -5 6
-11 18 -13 26 -2 8 -7 17 -11 20 -4 3 -13 21 -20 40 -7 19 -17 44 -23 55 -5
12 -10 37 -11 58 -1 20 -4 37 -7 37 -3 0 -6 8 -7 18 -1 16 -2 144 -2 187 0 67
75 292 102 303 4 2 7 8 7 13 0 14 17 34 90 108 74 74 119 111 138 111 6 0 12
4 12 8 0 12 168 75 180 67 5 -3 10 -2 10 4 0 5 8 10 18 9 32 0 135 12 140 17
3 2 9 2 14 -1 5 -4 37 -8 71 -10z"/>
<path d="M7320 16102 c0 -4 -33 -6 -73 -4 l-72 3 -44 -83 c-24 -46 -49 -86
-55 -90 -6 -4 -8 -8 -4 -8 9 0 -72 -163 -86 -172 -6 -4 -7 -8 -3 -8 5 0 0 -12
-11 -27 -10 -16 -27 -47 -37 -70 -11 -24 -22 -43 -25 -43 -4 0 -7 -6 -7 -12 0
-7 -30 -69 -67 -138 -36 -68 -66 -128 -66 -132 0 -4 -4 -8 -9 -8 -5 0 -12 -12
-16 -27 -3 -15 -10 -30 -13 -33 -4 -3 -38 -67 -77 -142 -38 -76 -74 -138 -79
-138 -5 0 -7 -3 -4 -6 7 -6 -111 -236 -126 -246 -6 -4 -7 -8 -3 -8 5 0 -2 -19
-16 -42 -14 -24 -44 -81 -67 -128 -24 -47 -47 -88 -52 -91 -6 -3 -9 -9 -8 -13
1 -8 -138 -284 -150 -296 -3 -3 -27 -50 -55 -105 -27 -55 -53 -101 -57 -103
-5 -2 -8 -10 -8 -18 0 -11 28 -14 150 -15 365 -1 400 0 398 9 -1 4 4 21 11 37
7 17 12 32 12 35 0 3 8 13 17 24 9 10 17 21 16 25 -2 11 69 156 78 159 4 2 8
8 8 13 0 6 11 34 25 62 l24 53 408 0 408 0 8 -30 c4 -17 9 -38 11 -46 11 -38
38 -142 41 -157 2 -10 8 -33 14 -51 5 -18 10 -35 10 -37 4 -34 26 -95 35 -95
10 -1 361 -1 468 0 46 0 47 1 43 28 -2 15 -11 52 -20 82 -15 53 -22 78 -30
110 -2 8 -4 15 -5 15 -1 0 -3 7 -5 15 -3 13 -19 75 -44 177 -5 18 -6 34 -3 37
3 4 1 6 -4 6 -5 0 -11 8 -12 18 -2 20 -7 42 -14 62 -16 44 -28 102 -23 109 3
5 1 11 -4 13 -11 4 -52 169 -44 181 3 6 2 7 -4 4 -5 -3 -15 22 -22 56 -7 34
-16 71 -21 82 -14 34 -34 119 -33 137 1 10 -2 18 -6 18 -4 0 -8 6 -8 13 0 6
-12 56 -27 110 -15 54 -24 102 -21 106 3 5 2 11 -3 13 -7 2 -62 192 -77 263
-2 11 -8 35 -14 53 -5 18 -10 33 -10 35 0 1 -2 9 -4 17 -13 39 -28 106 -26
110 1 3 -3 15 -9 26 -6 12 -14 34 -17 50 -3 16 -18 79 -34 139 l-28 110 -65 1
c-36 0 -73 4 -82 7 -9 4 -16 1 -16 -5 0 -8 -3 -9 -10 -2 -6 6 -28 8 -53 4 -24
-3 -55 -3 -70 1 -15 4 -27 4 -27 1z m5 -670 c1 -9 7 -35 13 -57 6 -22 13 -51
16 -65 3 -14 10 -45 16 -70 6 -25 13 -56 16 -70 3 -14 10 -43 15 -64 6 -22 12
-49 14 -60 1 -12 5 -28 8 -36 4 -8 8 -28 11 -45 2 -16 5 -31 6 -32 3 -4 3 -4
20 -78 15 -65 16 -74 26 -122 l6 -33 -266 0 c-147 0 -265 3 -263 8 17 30 87
186 87 193 0 5 4 9 8 9 5 0 9 6 9 13 0 6 23 59 50 117 27 58 56 120 64 138 7
17 18 32 22 32 5 0 6 4 3 8 -2 4 6 28 19 54 13 25 21 49 18 52 -4 3 -1 6 5 6
7 0 12 4 12 9 0 17 52 122 58 117 3 -3 6 -14 7 -24z"/>
<path d="M8246 16103 c-3 -4 -35 -5 -71 -4 -74 3 -89 -2 -76 -27 12 -21 23
-52 27 -72 1 -8 16 -60 33 -115 17 -55 33 -109 36 -120 5 -21 34 -117 85 -280
17 -55 31 -110 32 -122 2 -13 5 -23 9 -23 6 0 16 -36 24 -80 1 -8 9 -35 17
-60 16 -46 40 -127 44 -145 1 -5 10 -37 20 -70 10 -33 19 -62 19 -65 1 -3 9
-30 18 -60 9 -30 17 -59 18 -65 1 -5 5 -17 10 -26 4 -9 10 -27 13 -40 3 -13
17 -62 32 -109 14 -47 43 -146 65 -220 22 -74 49 -164 60 -200 11 -36 26 -85
33 -110 7 -25 23 -79 35 -120 l23 -75 161 2 c157 2 202 7 192 23 -2 4 5 17 16
28 11 12 17 22 15 22 -5 0 42 91 124 240 22 41 46 87 51 103 6 15 15 27 20 27
5 0 9 9 9 19 0 11 3 21 8 23 4 2 27 41 51 88 46 90 89 171 150 285 20 39 66
124 101 190 35 66 67 122 72 123 4 2 8 11 8 21 0 9 4 21 9 27 8 8 34 56 120
219 14 28 28 52 31 55 3 3 27 49 55 103 27 53 54 97 59 97 5 0 7 3 3 6 -6 6
25 72 55 117 11 15 16 27 13 27 -3 0 2 12 12 28 10 15 32 52 48 82 15 30 33
58 38 61 5 3 8 8 6 10 -3 5 37 86 61 124 25 40 26 70 3 56 -10 -5 -26 -5 -40
0 -13 5 -23 5 -23 1 0 -5 -15 -7 -32 -5 -29 3 -68 3 -246 1 -23 -1 -45 2 -48
4 -3 3 -21 2 -40 -2 -19 -4 -37 -4 -40 1 -3 5 -12 6 -21 0 -9 -4 -23 -7 -32
-5 -12 3 -36 -37 -96 -161 -44 -91 -83 -165 -87 -165 -5 0 -8 -6 -8 -13 0 -7
-14 -39 -32 -72 -17 -33 -53 -105 -81 -160 -27 -55 -54 -103 -59 -106 -5 -3
-9 -10 -9 -15 2 -19 -11 -44 -21 -44 -6 0 -9 -3 -5 -6 5 -5 -134 -284 -155
-311 -6 -7 -8 -13 -4 -13 3 0 -7 -21 -22 -47 -15 -27 -54 -101 -86 -165 -32
-65 -59 -118 -62 -118 -4 0 -22 63 -26 95 -2 11 -7 25 -10 31 -4 6 -9 21 -11
35 -3 13 -10 44 -17 69 -7 25 -14 52 -16 60 -2 8 -10 39 -18 68 -8 29 -14 53
-15 55 0 1 -2 9 -5 17 -6 17 -45 165 -52 197 -2 12 -8 33 -12 45 -5 13 -8 30
-7 38 0 8 -2 17 -6 20 -3 3 -13 34 -22 70 -15 64 -35 137 -63 235 -8 28 -16
60 -19 73 -7 32 -13 53 -24 90 -5 18 -10 35 -10 37 -1 3 -1 6 -2 8 -3 10 -11
45 -13 57 -1 9 -5 20 -8 25 -3 6 -9 24 -12 42 -8 36 -25 42 -94 32 -23 -3 -45
-2 -48 2 -2 5 -12 5 -21 2 -22 -9 -77 -8 -91 1 -7 4 -12 2 -12 -5 0 -8 -4 -8
-12 -1 -7 5 -22 6 -33 2 -11 -4 -30 -4 -41 1 -12 4 -25 5 -28 2z"/>
<path d="M10580 16101 c0 -4 -11 -6 -25 -3 -23 4 -25 1 -26 -34 -1 -22 -1 -42
0 -46 0 -5 -2 -8 -6 -8 -5 0 -9 -19 -9 -43 -1 -23 -5 -64 -8 -92 -4 -27 -9
-68 -11 -90 -2 -22 -6 -60 -10 -85 -8 -49 -15 -106 -16 -130 -1 -8 -5 -46 -10
-85 -5 -38 -11 -90 -14 -115 -3 -25 -7 -56 -9 -70 -2 -14 -7 -53 -11 -87 -3
-35 -8 -73 -10 -85 -1 -13 -5 -48 -9 -78 -4 -30 -9 -73 -13 -95 -3 -22 -7 -56
-9 -75 -9 -98 -19 -174 -24 -190 -1 -3 -2 -20 -2 -37 0 -18 -3 -33 -7 -33 -3
0 -5 -19 -4 -42 0 -24 -1 -47 -4 -51 -3 -5 -7 -30 -9 -55 -2 -26 -6 -58 -9
-72 -3 -14 -8 -54 -11 -90 -4 -60 -10 -105 -14 -105 -1 0 -3 -20 -5 -45 -1
-25 -3 -53 -4 -63 -1 -12 -5 -16 -13 -11 -10 6 -10 4 -2 -7 6 -8 10 -23 8 -34
-2 -11 -6 -42 -10 -70 -3 -27 -7 -56 -9 -62 -3 -10 19 -13 88 -13 423 -2 1110
0 1112 2 2 2 6 28 10 58 3 30 8 69 11 85 12 80 27 217 28 250 1 30 1 30 -56
30 -31 1 -60 4 -64 7 -3 4 -12 4 -19 2 -22 -9 -136 -10 -142 -2 -2 5 -9 5 -15
2 -15 -10 -248 -10 -248 -1 0 5 -5 5 -12 1 -14 -9 -76 -9 -85 -1 -3 4 -13 2
-22 -2 -9 -5 -26 -5 -37 -1 -20 8 -21 13 -13 53 4 25 10 66 14 91 3 25 10 78
16 118 5 40 12 96 15 123 3 28 7 59 9 70 2 11 4 22 4 26 2 9 475 5 490 -5 9
-6 12 -5 8 1 -5 7 23 10 84 9 50 -1 93 2 96 7 2 4 6 22 8 40 3 18 7 52 11 77
4 25 8 59 10 75 1 17 5 50 8 75 3 25 8 63 10 86 3 22 6 47 8 54 3 12 -50 15
-337 15 l-340 1 2 29 c1 17 5 49 8 73 3 23 7 59 9 80 2 20 7 53 10 72 17 116
19 137 17 153 -2 15 11 17 151 18 84 0 183 1 221 2 37 1 67 -2 67 -6 0 -5 5
-5 11 -2 15 10 229 12 229 2 0 -4 9 -2 19 5 11 7 19 14 19 17 0 4 0 8 1 11 1
3 4 30 7 60 8 81 12 115 14 115 1 0 4 25 6 55 5 54 11 95 14 95 1 0 3 17 4 37
l2 38 -52 -1 c-28 -1 -56 1 -62 5 -6 3 -13 2 -17 -3 -4 -7 -15 -7 -30 -1 -14
5 -25 6 -25 2 0 -8 -163 -7 -185 2 -8 3 -16 2 -19 -2 -3 -4 -32 -5 -65 -2 -33
3 -68 3 -78 -1 -10 -3 -30 -3 -45 2 -15 4 -30 4 -33 -1 -3 -5 -16 -5 -30 0
-14 5 -25 6 -25 2 0 -8 -163 -7 -185 2 -8 3 -16 2 -19 -2 -3 -4 -32 -5 -65 -2
-33 3 -68 3 -78 -1 -10 -3 -30 -3 -45 2 -15 4 -30 4 -33 -1 -3 -5 -16 -5 -30
0 -14 5 -25 6 -25 1z"/>
<path d="M12020 16101 c0 -4 -13 -6 -30 -3 -56 8 -60 1 -38 -70 11 -35 22 -70
25 -78 3 -8 7 -19 7 -25 1 -5 8 -30 16 -55 7 -25 15 -49 16 -55 13 -44 38
-128 68 -228 20 -65 34 -123 30 -129 -4 -6 -3 -8 3 -5 6 4 16 -18 23 -51 7
-31 17 -65 22 -75 6 -10 12 -31 14 -45 3 -15 14 -55 26 -89 11 -35 21 -71 23
-81 2 -9 4 -17 5 -17 1 0 3 -7 5 -15 2 -8 27 -91 56 -185 28 -93 52 -177 53
-186 1 -8 7 -28 14 -45 9 -23 23 -72 38 -126 1 -5 2 -9 4 -10 1 -2 3 -11 6
-20 7 -30 11 -42 17 -58 4 -8 8 -24 10 -35 1 -11 5 -24 9 -30 6 -10 37 -115
42 -145 2 -8 6 -22 9 -30 6 -16 58 -186 62 -204 1 -6 5 -18 8 -26 4 -8 8 -26
9 -40 2 -14 9 -29 16 -35 7 -6 78 -9 180 -7 l167 4 31 61 c61 125 119 232 126
235 5 2 8 12 8 22 0 10 3 20 8 22 4 2 14 17 23 33 8 17 44 84 79 150 106 199
126 237 165 313 20 39 41 72 46 72 6 0 8 4 4 9 -3 5 2 16 10 25 9 8 16 18 15
21 -1 19 2 25 16 39 9 9 17 22 18 29 5 24 40 87 48 87 5 0 7 4 3 9 -3 5 2 17
11 25 8 9 12 16 7 16 -4 0 -3 4 2 8 6 4 21 31 34 60 14 28 28 52 33 52 4 0 8
9 8 20 0 11 5 20 12 20 6 0 8 3 5 7 -4 3 -2 12 4 19 13 16 58 100 94 176 17
35 32 55 39 51 6 -3 8 -3 4 2 -7 7 87 202 103 215 4 3 9 15 13 28 4 12 12 22
17 22 6 0 8 4 4 9 -3 5 2 17 11 25 8 9 12 16 8 16 -4 0 3 11 16 25 13 14 20
25 16 25 -4 0 7 27 26 60 18 33 36 60 41 60 4 0 6 4 2 9 -5 9 30 79 46 91 3 3
6 12 6 22 0 12 -5 14 -21 8 -11 -4 -33 -4 -48 1 -15 4 -30 4 -33 -1 -3 -5 -16
-5 -30 0 -14 5 -25 6 -25 2 0 -8 -163 -7 -185 1 -7 3 -16 3 -19 0 -3 -3 -47
-5 -99 -5 l-94 1 -73 -147 c-40 -81 -77 -150 -82 -153 -6 -3 -9 -10 -9 -15 1
-18 -11 -44 -20 -44 -6 0 -7 -4 -4 -10 3 -5 1 -10 -5 -10 -6 0 -9 -4 -6 -8 3
-5 -6 -25 -20 -45 -14 -20 -22 -37 -19 -37 3 0 -12 -33 -33 -72 -22 -40 -90
-174 -153 -298 -63 -124 -117 -226 -121 -228 -5 -2 -8 -9 -8 -16 0 -6 -13 -36
-29 -66 -16 -30 -51 -99 -77 -152 -27 -54 -51 -95 -55 -90 -12 14 -69 243 -63
254 3 4 1 8 -4 8 -9 0 -32 78 -35 118 0 12 -5 22 -11 22 -5 0 -6 3 -3 6 3 4 2
15 -4 25 -8 17 -12 31 -21 94 -2 11 -6 22 -10 25 -4 3 -9 21 -12 40 -2 19 -9
46 -14 60 -5 14 -10 27 -10 30 0 3 -3 12 -6 20 -9 30 -65 256 -68 275 -2 11
-5 22 -8 25 -6 6 -51 181 -53 207 -1 10 -5 20 -8 23 -3 3 -14 39 -25 80 l-19
75 -62 1 c-34 1 -68 4 -76 7 -8 3 -17 3 -20 0 -8 -7 -195 -6 -206 2 -5 3 -12
1 -16 -4 -4 -7 -15 -7 -30 -1 -14 5 -25 6 -25 1z"/>
<path d="M17667 16103 c-4 -3 -21 -6 -38 -7 -24 -1 -33 -6 -35 -21 -5 -32 -15
-116 -20 -170 -2 -27 -7 -66 -10 -85 -10 -62 -15 -105 -29 -235 -3 -33 -8 -72
-10 -86 -5 -29 -10 -70 -20 -149 -3 -30 -10 -89 -16 -130 -6 -41 -13 -97 -15
-125 -10 -97 -13 -120 -15 -120 -1 0 -3 -13 -4 -30 -3 -45 -15 -151 -20 -173
-2 -10 -6 -45 -10 -78 -3 -32 -9 -79 -12 -104 -3 -25 -5 -53 -5 -62 1 -10 -2
-18 -6 -18 -4 0 -7 -17 -8 -38 0 -20 -4 -62 -8 -92 -4 -30 -9 -80 -12 -110 -5
-55 -11 -95 -14 -95 -1 0 -3 -18 -5 -40 -2 -22 -6 -60 -9 -85 -4 -25 -7 -69
-9 -98 l-2 -54 243 0 c134 1 246 2 248 4 2 3 6 15 8 29 2 13 5 24 6 24 2 0 10
90 13 138 1 15 4 27 7 27 3 0 5 12 5 28 1 28 12 126 20 177 3 17 7 48 9 70 4
44 16 144 22 190 9 61 16 121 17 143 2 38 11 29 58 -55 11 -19 26 -44 34 -57
8 -12 13 -26 10 -29 -3 -4 -2 -5 1 -2 7 4 74 -101 77 -120 1 -5 6 -13 11 -17
9 -6 53 -78 76 -123 5 -11 66 -112 134 -224 l124 -203 288 1 c158 1 289 3 291
5 2 2 -6 15 -18 29 -11 15 -17 27 -12 27 4 0 3 4 -3 8 -12 7 -43 55 -66 102
-7 14 -20 32 -29 41 -9 9 -22 30 -30 47 -8 18 -17 32 -21 32 -5 0 -8 5 -8 11
0 6 -13 30 -30 54 -16 24 -30 46 -30 48 0 5 -61 101 -77 122 -4 6 -17 26 -27
45 -11 19 -22 37 -25 40 -3 3 -12 15 -18 28 -27 47 -38 66 -46 76 -25 34 -87
137 -87 145 0 5 -6 11 -12 14 -19 7 1 25 32 30 14 2 37 9 51 15 15 6 35 12 45
14 11 2 30 13 43 25 14 12 28 20 32 18 4 -3 12 2 19 10 7 8 17 12 23 8 5 -3 7
-2 4 4 -3 5 12 20 33 34 22 13 40 26 40 29 0 13 48 59 54 52 4 -4 6 -2 5 3 -4
11 49 106 66 117 5 4 7 8 3 8 -3 0 3 24 14 53 11 28 23 68 25 87 3 19 10 38
17 42 8 6 8 8 -1 8 -9 0 -10 7 -5 23 9 24 7 176 -3 247 -10 66 -50 176 -81
224 -27 39 -118 135 -159 166 -11 8 -39 24 -62 34 -24 10 -43 22 -43 25 0 4
-8 7 -17 8 -10 1 -38 7 -63 13 -25 6 -54 14 -65 16 -29 7 -196 14 -305 14 -52
0 -115 -1 -140 0 -113 0 -195 -2 -199 -5 -2 -2 -11 0 -21 5 -10 5 -20 7 -23 3
-8 -7 -122 -7 -135 1 -5 3 -12 3 -15 -1z m628 -408 c71 -14 175 -81 175 -112
0 -7 4 -13 9 -13 16 0 33 -111 28 -177 -7 -76 -32 -136 -78 -185 -31 -33 -106
-80 -136 -84 -6 -1 -33 -7 -60 -12 -26 -6 -82 -10 -123 -10 -41 0 -79 -1 -85
-2 -24 -5 -44 1 -40 13 2 6 7 37 9 67 3 30 8 73 11 95 3 22 7 56 9 75 3 19 5
35 6 35 1 0 3 31 6 69 3 39 9 75 15 82 6 8 7 14 0 18 -6 4 -6 18 0 39 5 17 9
48 9 68 0 20 3 38 6 41 7 7 197 2 239 -7z"/>
<path d="M18315 15611 c-3 -5 -2 -12 3 -15 5 -3 9 1 9 9 0 17 -3 19 -12 6z"/>
<path d="M19608 16104 c-3 -2 -40 -5 -82 -6 l-76 -1 -1 -31 c0 -17 -2 -40 -4
-51 -4 -21 -13 -106 -20 -185 -7 -78 -13 -143 -20 -200 -4 -30 -8 -73 -10 -95
-1 -22 -3 -40 -4 -40 -1 0 -4 -25 -6 -55 -6 -76 -20 -224 -29 -295 -3 -22 -7
-69 -10 -105 -3 -36 -6 -65 -6 -65 -1 0 -4 -31 -7 -70 -2 -38 -10 -73 -16 -77
-9 -6 -9 -8 -1 -8 8 0 10 -11 5 -33 -8 -32 -7 -317 1 -369 2 -15 7 -30 11 -34
4 -4 7 -14 7 -21 0 -25 51 -144 81 -188 29 -43 124 -145 134 -145 3 0 15 -9
27 -20 19 -17 143 -83 160 -85 3 0 10 -3 14 -7 4 -5 18 -8 31 -8 13 0 23 -4
23 -8 0 -4 8 -8 18 -9 9 -1 31 -4 47 -8 30 -7 66 -13 120 -21 50 -7 317 -8
375 -1 50 6 67 9 125 21 108 22 242 79 320 136 50 37 161 150 147 150 -4 0 -2
4 3 8 6 4 24 34 40 67 17 33 32 62 35 65 3 3 6 12 8 20 1 8 7 24 12 35 22 47
52 169 54 215 0 28 4 50 8 50 4 0 5 7 2 15 -4 8 -2 15 2 15 5 0 9 17 9 38 1
20 4 60 8 87 4 28 10 70 13 95 9 83 14 125 18 155 3 17 7 61 10 99 4 38 9 83
12 100 4 17 8 45 10 61 7 65 14 132 19 165 2 19 7 60 9 90 3 30 7 69 10 85 3
17 7 53 10 80 3 28 8 66 11 85 6 48 15 126 20 180 3 25 7 62 11 82 l6 37 -64
0 c-171 1 -252 0 -256 -3 -2 -2 -17 0 -33 4 -16 5 -29 6 -29 2 0 -9 -53 -7
-68 2 -7 4 -12 2 -12 -5 0 -9 -3 -9 -14 0 -21 17 -32 -9 -41 -89 -7 -68 -8
-80 -20 -170 -9 -68 -15 -113 -19 -165 -2 -22 -5 -40 -5 -40 -1 0 -4 -20 -6
-45 -6 -57 -9 -72 -18 -87 -4 -6 -3 -14 3 -18 6 -4 8 -11 4 -16 -3 -6 -8 -27
-10 -47 -9 -86 -14 -130 -25 -206 -6 -45 -13 -97 -15 -116 -1 -19 -5 -53 -8
-75 -12 -88 -19 -142 -21 -175 -2 -19 -4 -35 -5 -35 -1 0 -3 -9 -4 -20 -1 -11
-6 -38 -10 -60 -4 -22 -8 -42 -8 -45 0 -3 -6 -19 -13 -37 -7 -17 -11 -33 -9
-36 8 -8 -52 -131 -80 -163 -48 -58 -127 -99 -231 -120 -32 -7 -136 -6 -190 1
-53 7 -165 52 -165 66 0 5 -5 9 -10 9 -18 0 -66 56 -90 105 -36 75 -41 200
-16 400 2 17 7 57 11 90 3 33 8 71 10 84 4 22 9 66 20 171 1 14 6 50 10 80 4
30 9 73 11 95 1 22 3 41 4 43 2 1 3 10 4 20 6 52 18 161 22 187 7 55 16 130
17 153 1 12 3 22 7 22 3 0 5 19 6 43 0 23 4 76 8 118 5 63 4 78 -8 82 -9 4
-18 2 -22 -4 -4 -6 -11 -6 -20 2 -11 9 -14 9 -14 -1 0 -9 -4 -9 -12 -2 -7 5
-22 6 -33 2 -11 -4 -28 -3 -37 2 -10 5 -18 5 -18 0 0 -9 -53 -8 -69 2 -5 4
-12 3 -14 -1 -6 -9 -59 -9 -74 0 -6 4 -12 4 -15 1z"/>
<path d="M8866 16082 c-3 -5 1 -9 9 -9 8 0 12 4 9 9 -3 4 -7 8 -9 8 -2 0 -6
-4 -9 -8z"/>
<path d="M18795 14811 c-3 -5 -2 -12 3 -15 5 -3 9 1 9 9 0 17 -3 19 -12 6z"/>
<path d="M19113 14635 c0 -8 4 -12 9 -9 5 3 6 10 3 15 -9 13 -12 11 -12 -6z"/>
<path d="M16655 14508 c-53 -17 -91 -37 -109 -57 -10 -11 -23 -18 -29 -14 -6
3 -7 1 -3 -5 4 -6 -2 -20 -14 -32 -11 -11 -18 -20 -15 -20 3 0 -2 -17 -10 -37
-9 -20 -13 -43 -11 -50 3 -7 1 -15 -5 -18 -5 -4 -7 -9 -5 -13 2 -4 7 -29 10
-56 7 -49 53 -132 82 -149 8 -5 11 -14 8 -20 -4 -7 -4 -9 1 -5 4 4 28 -3 54
-16 132 -66 298 2 352 144 24 64 20 161 -11 215 -28 51 -94 113 -128 121 -15
4 -31 9 -37 13 -17 10 -98 9 -130 -1z"/>
<path d="M6795 14001 c-3 -5 -2 -12 3 -15 5 -3 9 1 9 9 0 17 -3 19 -12 6z"/>
<path d="M17995 13681 c-3 -5 -2 -12 3 -15 5 -3 9 1 9 9 0 17 -3 19 -12 6z"/>
<path d="M17986 13522 c-3 -5 1 -9 9 -9 8 0 12 4 9 9 -3 4 -7 8 -9 8 -2 0 -6
-4 -9 -8z"/>
<path d="M18315 13371 c-3 -5 -2 -12 3 -15 5 -3 9 1 9 9 0 17 -3 19 -12 6z"/>
<path d="M18186 13215 c-32 -30 -63 -52 -69 -48 -6 3 -7 2 -4 -4 3 -5 -14 -27
-40 -49 -25 -21 -63 -55 -83 -74 -117 -109 -171 -149 -163 -120 4 14 16 105
19 135 1 17 3 30 4 30 1 0 3 20 5 45 2 25 7 54 9 66 5 19 1 20 -64 22 l-70 2
-1 -27 c0 -16 -2 -37 -4 -48 -4 -18 -14 -95 -20 -155 -10 -98 -18 -161 -25
-197 -5 -27 -4 -43 3 -43 6 0 5 -5 -1 -13 -9 -11 -24 -137 -16 -137 1 0 18 15
37 33 94 89 158 147 162 147 2 0 20 15 38 33 56 53 169 152 179 156 6 2 7 -11
3 -30 -3 -19 -8 -54 -11 -79 -2 -25 -7 -56 -10 -70 -4 -14 -8 -49 -10 -78 -2
-29 -6 -57 -8 -60 -3 -6 109 -8 135 -3 4 0 7 11 6 24 0 12 3 49 7 82 4 33 9
80 12 105 2 25 6 59 9 75 2 17 7 62 11 100 8 81 12 110 14 110 0 0 3 28 5 63
2 34 3 62 2 62 -1 -1 -28 -25 -61 -55z"/>
<path d="M20502 13245 c-7 -14 -12 -32 -12 -40 0 -8 -5 -15 -12 -15 -6 0 -9
-3 -6 -6 5 -5 -19 -86 -48 -164 -3 -8 -5 -17 -6 -20 0 -3 -4 -13 -10 -23 -5
-10 -12 -30 -14 -45 -3 -14 -8 -30 -12 -36 -3 -6 -8 -15 -9 -21 -1 -5 -19 -60
-40 -120 l-38 -110 67 -1 68 0 31 96 c16 53 32 103 33 111 8 38 19 69 25 69
12 0 61 -122 54 -134 -3 -6 -3 -8 2 -4 4 5 19 -18 33 -50 50 -116 55 -125 69
-105 7 10 16 23 20 29 4 5 13 17 18 26 27 44 169 248 171 245 1 -1 5 -56 9
-122 4 -66 8 -129 9 -140 1 -17 9 -20 61 -21 70 -1 88 4 78 20 -4 6 -9 27 -9
46 -1 19 -5 58 -8 85 -4 28 -9 79 -12 115 -2 36 -7 76 -9 90 -3 14 -8 61 -11
105 -4 44 -8 91 -9 105 -2 14 -3 33 -4 43 -1 15 -3 16 -13 5 -7 -7 -19 -25
-27 -40 -8 -16 -18 -28 -23 -28 -4 0 -8 -6 -8 -13 0 -7 -9 -23 -20 -35 -12
-12 -18 -22 -15 -22 3 0 1 -6 -5 -12 -6 -7 -49 -71 -96 -142 l-84 -128 -17 38
c-9 22 -18 42 -19 47 -1 4 -3 9 -4 12 -1 3 -3 8 -4 13 -2 4 -8 21 -15 37 -17
39 -36 84 -49 115 -5 14 -18 42 -27 64 -9 21 -18 44 -20 50 -1 6 -6 21 -12 34
l-9 24 -12 -27z"/>
<path d="M19837 13227 c-36 -12 -71 -33 -95 -56 -50 -51 -71 -78 -65 -85 4 -3
2 -6 -4 -6 -5 0 -10 -6 -11 -12 -1 -7 -8 -36 -15 -63 -14 -48 -16 -145 -4
-190 22 -83 96 -155 177 -172 89 -19 154 -6 209 42 l24 20 -5 -27 c-3 -17 -1
-28 6 -29 6 -1 37 -2 69 -4 46 -1 57 1 58 14 0 9 2 25 4 36 6 32 14 94 21 165
3 36 7 67 9 70 2 3 6 41 10 85 4 44 10 84 13 90 3 5 7 33 9 61 l3 52 -65 0
c-64 0 -65 -1 -73 -30 l-8 -31 -29 32 c-53 56 -142 70 -238 38z m158 -122 c35
-14 75 -58 85 -95 11 -43 5 -143 -10 -148 -5 -2 -10 -9 -10 -16 0 -22 -39 -65
-76 -82 -77 -37 -168 -4 -201 73 -20 48 -15 148 9 178 10 13 18 27 18 32 0 14
50 47 88 59 39 12 64 11 97 -1z"/>
<path d="M13757 13233 c-4 -3 -99 -6 -212 -6 -145 0 -205 -3 -206 -11 0 -6 -2
-20 -4 -31 -2 -11 -7 -47 -11 -80 -3 -33 -8 -69 -10 -80 -2 -11 -6 -38 -9 -60
-18 -144 -39 -184 -104 -194 -29 -5 -36 -11 -35 -29 1 -12 -1 -22 -5 -22 -3 0
-7 -16 -7 -35 -1 -35 -1 -35 42 -35 110 0 209 87 219 193 4 35 14 113 18 137
1 8 6 20 9 25 4 6 3 17 -2 25 -5 9 -5 19 1 26 5 7 8 18 7 25 -2 9 6 14 25 13
15 -1 27 3 27 8 0 5 4 6 10 3 19 -11 50 -14 50 -4 0 6 6 7 13 2 6 -4 19 -8 27
-8 9 0 14 -8 13 -20 -6 -73 -21 -201 -28 -250 -2 -16 -7 -59 -11 -95 -3 -36
-7 -67 -8 -70 0 -3 4 -7 9 -8 6 -2 16 -8 23 -14 7 -6 12 -6 12 -1 0 5 20 9 45
8 25 0 45 4 46 9 0 6 2 20 3 31 2 11 6 47 10 80 3 33 9 73 12 89 7 33 9 49 19
161 3 44 8 82 11 86 6 10 17 139 12 139 -3 0 -8 -3 -11 -7z"/>
<path d="M14337 13220 c-71 -22 -176 -97 -160 -114 4 -3 1 -6 -6 -6 -11 0 -30
-38 -35 -70 -2 -10 -17 -16 -49 -18 -44 -3 -47 -1 -47 21 0 13 3 26 6 30 4 3
8 30 10 59 2 29 5 62 6 73 3 18 -3 20 -64 21 -73 2 -73 2 -71 -63 1 -7 -3 -13
-7 -13 -4 0 -6 -10 -5 -22 1 -13 -1 -50 -6 -83 -5 -33 -12 -84 -15 -113 -6
-54 -11 -87 -14 -87 -2 0 -11 -107 -13 -155 -2 -32 0 -35 28 -35 17 1 33 -4
37 -10 5 -7 8 -6 8 1 0 7 13 10 31 9 21 -2 29 1 25 10 -2 7 -2 15 1 18 3 3 6
25 8 49 9 132 22 177 50 160 5 -3 20 -5 31 -4 18 3 22 -4 28 -37 3 -23 14 -58
24 -78 18 -41 77 -105 86 -95 3 3 6 1 6 -5 0 -26 149 -45 232 -29 14 2 40 11
57 20 17 9 31 14 31 11 0 -4 7 1 15 9 9 9 24 21 33 28 43 32 113 182 97 208
-3 5 -2 11 2 13 20 12 -2 140 -32 187 -69 109 -195 151 -328 110z m145 -115
c23 -6 73 -56 73 -74 0 -3 3 -10 7 -16 8 -14 2 -116 -9 -124 -4 -3 -9 -13 -11
-21 -10 -46 -90 -109 -147 -116 -58 -7 -144 50 -149 98 -1 13 -6 30 -11 37 -6
10 -4 12 6 6 11 -6 11 -5 3 4 -14 15 3 91 32 141 34 59 124 87 206 65z"/>
<path d="M4862 13205 c-29 -12 -67 -33 -83 -48 -17 -15 -34 -27 -38 -27 -7 0
-12 -9 -50 -86 -18 -37 -24 -65 -23 -119 0 -78 1 -83 26 -140 9 -22 18 -42 19
-45 1 -3 26 -26 56 -53 88 -76 215 -100 311 -56 48 22 129 79 130 92 0 4 11
24 24 45 34 51 46 131 33 210 -30 180 -238 296 -405 227z"/>
<path d="M6068 13225 c-2 -2 -17 -5 -35 -8 -94 -15 -208 -134 -225 -234 -2
-10 -7 -21 -13 -25 -6 -5 -6 -8 1 -8 6 0 10 -15 9 -36 -4 -51 22 -136 52 -170
14 -16 28 -34 31 -39 17 -26 91 -73 132 -84 56 -15 127 -16 160 -3 14 5 28 8
33 5 4 -2 7 1 7 7 0 6 4 9 8 6 5 -3 33 15 64 39 79 61 112 132 115 240 1 43
-1 84 -5 90 -4 5 -7 12 -8 15 -13 64 -93 151 -164 180 -14 6 -32 13 -40 17
-16 6 -117 13 -122 8z"/>
<path d="M7165 13217 c-40 -10 -133 -68 -148 -93 -4 -7 -14 -19 -22 -27 -8 -8
-23 -42 -35 -76 -79 -236 125 -464 360 -401 50 13 120 49 120 62 0 4 8 8 17 8
9 0 14 3 10 6 -3 3 3 16 15 28 55 58 86 223 52 287 -8 16 -12 29 -9 29 7 0
-26 52 -55 86 -30 35 -101 82 -132 88 -13 3 -23 5 -23 6 0 7 -118 5 -150 -3z"/>
<path d="M8312 13219 c-13 -5 -28 -7 -33 -3 -5 3 -9 0 -9 -5 0 -6 -7 -11 -16
-11 -24 0 -99 -64 -133 -113 -15 -23 -34 -65 -40 -94 -13 -53 -13 -140 -1
-158 4 -5 13 -26 19 -46 6 -20 21 -45 31 -54 11 -10 20 -24 20 -32 0 -7 7 -13
15 -13 9 0 18 -7 21 -15 4 -8 12 -15 19 -15 7 0 18 -6 24 -13 28 -35 218 -48
255 -18 7 6 15 9 18 6 3 -3 11 1 18 10 7 8 17 15 23 15 26 0 111 115 125 170
11 41 8 151 -5 186 -7 21 -15 43 -16 48 -2 10 -24 37 -65 79 -60 62 -202 102
-270 76z"/>
<path d="M9426 13214 c-92 -32 -156 -91 -193 -178 -29 -69 -31 -164 -6 -226 6
-14 9 -28 7 -31 -2 -4 3 -9 11 -13 8 -3 15 -11 15 -19 0 -18 72 -83 123 -109
53 -28 184 -35 228 -12 16 8 29 11 29 8 0 -4 9 1 20 11 11 10 20 15 20 12 0
-3 20 14 45 40 25 25 45 50 45 56 0 6 6 18 14 26 8 9 18 30 22 46 8 38 12 157
5 170 -3 6 -6 12 -7 15 -2 18 -40 90 -46 90 -5 0 -8 6 -8 13 0 17 -104 90
-143 100 -56 14 -141 15 -181 1z"/>
<path d="M10580 13218 c-19 -5 -42 -9 -50 -10 -8 -1 -23 -10 -34 -20 -11 -10
-24 -18 -28 -18 -15 0 -56 -46 -86 -97 -46 -74 -56 -172 -28 -254 20 -58 76
-135 114 -155 17 -9 32 -21 32 -26 0 -4 3 -7 8 -6 4 1 27 -4 52 -11 63 -18
155 -10 214 18 49 24 116 81 116 99 0 5 7 15 15 22 8 6 14 15 13 18 -1 4 5 21
12 37 8 17 13 63 13 106 0 112 -47 199 -138 257 -22 14 -40 24 -40 22 0 -2
-11 2 -23 9 -30 16 -116 21 -162 9z"/>
<path d="M14829 13227 c0 -2 -6 -42 -14 -97 -10 -74 -12 -87 -19 -98 -3 -6 -2
-13 4 -17 6 -4 8 -10 5 -15 -8 -13 22 -80 43 -97 53 -42 134 -57 215 -40 l39
8 -6 -68 c-4 -37 -8 -86 -9 -108 l-2 -40 70 0 70 0 2 30 c2 17 5 46 8 65 2 19
7 55 11 80 3 25 7 59 9 75 1 17 3 30 5 30 1 0 3 25 5 55 2 30 6 69 9 85 3 17
9 55 12 85 3 30 8 58 10 61 2 3 -28 6 -66 7 -61 1 -70 -1 -70 -17 0 -10 -3
-20 -6 -24 -5 -4 -13 -90 -17 -179 -1 -10 -4 -18 -7 -19 -3 0 -14 -3 -25 -6
-37 -9 -90 -9 -115 1 -48 20 -50 30 -36 170 4 32 8 62 10 65 2 3 -27 7 -65 8
-38 1 -69 1 -70 0z"/>
<path d="M16694 13220 c-91 -20 -168 -80 -208 -162 -46 -95 -44 -264 5 -317
11 -11 19 -23 19 -26 0 -18 98 -85 126 -85 8 0 14 -3 14 -7 0 -5 35 -7 77 -5
106 4 113 5 113 15 0 4 3 6 8 3 19 -11 43 24 48 70 2 27 6 59 9 72 l4 24 -34
-26 c-18 -14 -43 -27 -54 -29 -11 -2 -23 -6 -26 -9 -9 -9 -78 1 -116 18 -31
13 -79 75 -68 87 2 2 -1 10 -7 18 -11 14 -11 71 0 118 8 34 52 89 89 108 21
11 55 17 98 17 57 0 70 -4 105 -30 21 -16 42 -32 45 -37 3 -4 6 7 7 25 2 46
10 96 15 106 3 4 -10 18 -30 32 -29 20 -48 24 -121 25 -48 1 -101 -1 -118 -5z"/>
<path d="M17143 13222 c-13 -2 -23 -9 -24 -15 -1 -7 -2 -25 -4 -42 -1 -16 -3
-30 -4 -30 -2 0 -4 -20 -6 -45 -1 -25 -4 -45 -5 -45 -1 0 -3 -13 -5 -30 -1
-16 -5 -55 -9 -85 -5 -51 -9 -83 -21 -170 -2 -19 -7 -56 -10 -81 l-6 -45 70 0
71 1 1 30 c1 16 3 39 5 50 1 11 6 47 9 80 6 55 19 80 36 69 11 -7 149 -212
149 -221 0 -7 152 -10 168 -4 2 0 -8 16 -22 34 -15 19 -26 37 -26 41 0 4 -5
12 -11 19 -6 7 -44 61 -85 120 l-74 109 39 36 c21 20 68 63 103 95 34 32 77
71 95 87 26 24 29 31 17 41 -8 6 -14 7 -14 2 0 -11 -113 -11 -121 0 -6 8 -96
-70 -173 -150 -48 -50 -58 -53 -51 -15 3 15 8 47 11 72 2 25 6 55 9 67 3 21 0
23 -34 21 -21 0 -42 1 -47 3 -5 3 -19 3 -31 1z"/>
<path d="M18723 13224 c3 -5 -50 -8 -126 -7 -73 1 -127 -1 -121 -5 6 -4 10
-16 7 -27 -2 -11 -5 -54 -8 -95 -11 -159 -25 -218 -63 -268 -22 -29 -58 -53
-84 -56 -13 -2 -16 -11 -22 -61 -3 -27 -8 -66 -11 -85 -3 -19 -7 -59 -10 -89
-4 -52 -3 -53 21 -48 13 2 24 1 24 -2 0 -3 15 -6 32 -5 25 1 33 6 34 20 2 17
6 46 18 129 3 19 11 20 196 20 156 0 194 -3 198 -14 3 -8 1 -11 -4 -8 -11 6
-12 -138 -1 -149 4 -4 7 -3 7 2 0 10 46 12 56 2 10 -11 45 4 40 17 -2 7 -2 16
2 20 3 3 7 16 8 28 2 12 6 49 9 82 4 33 8 78 9 100 l1 39 -40 1 c-44 0 -42 -4
-31 85 3 25 8 68 11 95 2 28 7 66 9 85 7 50 16 120 20 157 l4 31 -83 0 c-46 0
-89 3 -96 8 -7 4 -10 3 -6 -2z m43 -177 c-3 -23 -8 -60 -11 -82 -4 -22 -8 -53
-10 -70 -2 -16 -4 -30 -5 -30 -1 0 -3 -22 -5 -49 -2 -26 -7 -51 -10 -55 -7 -6
-215 -9 -215 -3 0 2 13 23 30 46 17 26 32 63 36 92 3 27 9 53 12 59 4 5 5 22
3 37 -1 15 3 37 9 49 7 12 7 19 2 15 -6 -4 -8 2 -5 14 5 18 13 20 90 19 l85
-1 -6 -41z"/>
<path d="M19443 13218 c-24 -5 -43 -13 -43 -18 0 -5 -23 -30 -52 -57 -28 -26
-65 -63 -81 -80 -33 -36 -51 -43 -43 -15 2 9 8 46 11 82 4 36 8 70 8 75 1 6
-27 11 -65 12 -63 1 -68 0 -69 -20 0 -12 -2 -31 -4 -42 -4 -22 -13 -89 -19
-145 -5 -49 -16 -129 -22 -170 -6 -41 -14 -123 -17 -165 -2 -29 -1 -30 43 -30
25 0 51 -5 59 -9 10 -6 12 -5 7 2 -4 7 -1 12 8 12 10 0 16 9 17 23 0 12 3 42
6 67 4 25 7 61 7 82 1 20 4 34 9 31 4 -2 7 1 7 6 0 23 28 9 40 -19 7 -16 17
-30 22 -30 5 0 7 -4 4 -9 -3 -5 1 -11 9 -15 8 -3 15 -10 15 -16 0 -6 6 -18 13
-25 29 -33 37 -45 37 -55 0 -5 4 -10 8 -10 5 0 13 -10 19 -22 9 -21 17 -23 92
-23 44 0 81 1 81 4 0 2 -11 19 -25 37 -14 18 -25 35 -25 39 0 6 -10 19 -37 50
-7 7 -13 18 -13 23 0 6 -3 12 -7 14 -10 4 -73 94 -73 103 0 3 -9 15 -20 27
-11 12 -20 24 -20 28 0 11 144 135 154 132 6 -2 8 -1 4 3 -4 4 -2 12 5 19 7 6
33 30 59 53 26 23 44 44 40 47 -4 2 -26 4 -49 4 -24 1 -46 3 -50 5 -5 2 -27 0
-50 -5z"/>
<path d="M12675 13207 c-2 -7 -6 -34 -9 -62 -2 -27 -5 -50 -6 -50 -1 0 -3 -20
-5 -45 -2 -25 -6 -61 -9 -80 -3 -19 -7 -57 -11 -85 -20 -171 -26 -216 -31
-236 -3 -13 7 -15 60 -14 36 0 68 3 71 6 8 8 15 46 17 92 1 21 4 40 8 42 4 2
6 20 5 39 -3 37 13 60 31 48 11 -8 74 -97 74 -106 0 -3 7 -14 15 -23 8 -10 27
-36 43 -58 l28 -40 77 0 c56 0 77 3 77 12 0 7 -4 13 -10 13 -5 0 -10 6 -10 13
0 8 -9 22 -20 32 -11 10 -20 24 -20 31 0 7 -4 14 -8 16 -13 5 -142 199 -142
214 0 7 4 14 9 16 12 4 162 141 199 181 14 15 31 27 37 27 6 0 12 6 12 14 0
11 -19 14 -82 15 l-82 1 -81 -77 c-103 -100 -137 -131 -129 -117 4 6 9 35 12
65 3 30 7 70 11 90 l5 36 -66 1 c-42 0 -68 -4 -70 -11z"/>
<path d="M15693 13196 c-3 -37 -13 -130 -19 -166 -3 -19 -7 -48 -9 -65 -1 -16
-4 -30 -5 -30 -1 0 -3 -22 -5 -50 -3 -27 -7 -68 -10 -90 -4 -22 -7 -55 -9 -73
-2 -17 -5 -34 -8 -37 -3 -3 -3 -16 -1 -28 4 -21 10 -23 61 -22 31 0 62 3 67 7
10 6 16 41 19 111 0 15 5 27 9 27 5 0 5 5 2 10 -10 16 5 68 21 74 9 3 17 -2
21 -12 4 -9 12 -22 18 -28 6 -6 37 -51 70 -100 l59 -90 78 0 c56 1 78 4 78 13
0 7 -4 13 -9 13 -5 0 -13 9 -16 20 -3 11 -12 26 -18 32 -23 24 -117 168 -117
178 0 5 -4 10 -10 10 -5 0 -17 14 -25 31 -18 33 -13 45 32 82 12 10 37 32 56
50 18 17 64 60 101 94 l68 63 -92 -2 -91 -1 -78 -76 c-95 -93 -137 -130 -127
-113 9 14 16 70 19 142 l2 45 -65 1 c-61 2 -66 0 -67 -20z"/>
<path d="M7756 12962 c-3 -5 1 -9 9 -9 8 0 12 4 9 9 -3 4 -7 8 -9 8 -2 0 -6
-4 -9 -8z"/>
<path d="M16546 12402 c-3 -5 1 -9 9 -9 8 0 12 4 9 9 -3 4 -7 8 -9 8 -2 0 -6
-4 -9 -8z"/>
<path d="M9113 12245 c0 -8 4 -12 9 -9 5 3 6 10 3 15 -9 13 -12 11 -12 -6z"/>
<path d="M10153 12235 c0 -8 4 -12 9 -9 5 3 6 10 3 15 -9 13 -12 11 -12 -6z"/>
<path d="M10156 12082 c-3 -5 1 -9 9 -9 8 0 12 4 9 9 -3 4 -7 8 -9 8 -2 0 -6
-4 -9 -8z"/>
<path d="M13030 12080 c0 -5 5 -10 11 -10 5 0 7 5 4 10 -3 6 -8 10 -11 10 -2
0 -4 -4 -4 -10z"/>
<path d="M12716 11762 c-3 -5 1 -9 9 -9 8 0 12 4 9 9 -3 4 -7 8 -9 8 -2 0 -6
-4 -9 -8z"/>
<path d="M13510 11760 c0 -5 5 -10 11 -10 5 0 7 5 4 10 -3 6 -8 10 -11 10 -2
0 -4 -4 -4 -10z"/>
<path d="M10946 11602 c-3 -5 1 -9 9 -9 8 0 12 4 9 9 -3 4 -7 8 -9 8 -2 0 -6
-4 -9 -8z"/>
<path d="M14156 11598 c3 -5 10 -6 15 -3 13 9 11 12 -6 12 -8 0 -12 -4 -9 -9z"/>
<path d="M14315 11601 c-3 -5 -2 -12 3 -15 5 -3 9 1 9 9 0 17 -3 19 -12 6z"/>
<path d="M17389 11523 c-13 -16 -12 -17 4 -4 9 7 17 15 17 17 0 8 -8 3 -21
-13z"/>
</g>
</svg>
